<?xml version="1.0" encoding="UTF-8"?>
<svg version="1.1" xmlns="http://www.w3.org/2000/svg" width="665" height="375">
<path d="M0 0 C0 0.66 0 1.32 0 2 C0.721875 2.226875 1.44375 2.45375 2.1875 2.6875 C14.89268114 8.61658453 25.21144594 28.84066929 30.71875 41.30859375 C37.05362883 59.55999771 38.15827471 79.10661951 35.75 98.125 C35.64075195 99.04313477 35.53150391 99.96126953 35.41894531 100.90722656 C34.25830027 109.40948459 31.5266072 116.71806667 27 124 C26.38125 125.6396875 26.38125 125.6396875 25.75 127.3125 C23.78436711 132.0036754 20.47715597 135.36048656 17 139 C15.97519531 140.10214844 15.97519531 140.10214844 14.9296875 141.2265625 C9.45763757 146.93396942 3.53768926 151.56998369 -3 156 C-4.01707031 156.69222656 -4.01707031 156.69222656 -5.0546875 157.3984375 C-7.00312944 158.66775445 -8.98193428 159.84467613 -11 161 C-11.77601563 161.45890625 -12.55203125 161.9178125 -13.3515625 162.390625 C-27.16072462 169.95183769 -43.22948692 173.98199378 -58.72265625 176.296875 C-63.06885253 177.22931282 -66.49804388 178.87066658 -70.046875 181.5390625 C-75.29131866 185.46190636 -81.31577796 187.14286545 -87.81640625 186.796875 C-102.61095556 184.63542254 -115.71733944 178.29500227 -128 170 C-128.71414063 169.51917969 -129.42828125 169.03835938 -130.1640625 168.54296875 C-139.61978568 161.79166022 -148.41616289 153.58241638 -155 144 C-155.58265625 143.15953125 -156.1653125 142.3190625 -156.765625 141.453125 C-171.89650683 118.69101581 -177.82545901 89.61759965 -172.8125 62.625 C-168.53576433 42.76016234 -159.10346876 22.0398442 -144 8 C-143.34 8 -142.68 8 -142 8 C-141.7628125 7.41863281 -141.525625 6.83726563 -141.28125 6.23828125 C-138.72628826 1.77488773 -134.0514085 -0.95430081 -130 -4 C-128.79923828 -4.92232422 -128.79923828 -4.92232422 -127.57421875 -5.86328125 C-90.02868647 -33.57692291 -35.49892793 -28.52226001 0 0 Z M-105.1875 0.1875 C-105.85821533 0.49284668 -106.52893066 0.79819336 -107.2199707 1.11279297 C-115.15316535 4.83943858 -122.03025047 9.54621672 -128 16 C-128.77730469 16.73089844 -128.77730469 16.73089844 -129.5703125 17.4765625 C-134.82142895 22.44510766 -138.90352216 28.06357872 -143 34 C-143.4640625 34.63421875 -143.928125 35.2684375 -144.40625 35.921875 C-154.02857118 49.8619044 -156.76804836 67.4101555 -156 84 C-155.98195312 85.0415625 -155.96390625 86.083125 -155.9453125 87.15625 C-155.46121376 99.79977004 -151.67175697 111.71881306 -146 123 C-145.61714844 123.83402344 -145.23429687 124.66804687 -144.83984375 125.52734375 C-135.39170518 144.72662241 -117.4304658 157.41469793 -98 165 C-97.24203125 165.34289062 -96.4840625 165.68578125 -95.703125 166.0390625 C-74.12526197 173.70980572 -49.9332564 170.45314022 -29.30078125 161.6328125 C-24.45078422 159.23364237 -20.24170278 156.33952243 -16 153 C-15.19691406 152.39800781 -14.39382813 151.79601562 -13.56640625 151.17578125 C2.52613195 138.99407335 15.726109 119.9196756 19.375 99.8125 C21.25697583 84.28144692 21.30304645 67.33249494 15.5 52.6875 C15.14397705 51.77814697 14.7879541 50.86879395 14.42114258 49.93188477 C5.80438831 28.70451343 -10.45311354 10.29309657 -31.81494141 1.22998047 C-33.8887325 0.37907853 -35.97171017 -0.44180159 -38.0625 -1.25 C-39.0539502 -1.6380481 -39.0539502 -1.6380481 -40.06542969 -2.03393555 C-49.40730222 -5.50413783 -58.83435487 -5.18263425 -68.6875 -5.1875 C-69.97333984 -5.19974609 -71.25917969 -5.21199219 -72.58398438 -5.22460938 C-83.85490955 -5.24169516 -94.86438222 -4.68110372 -105.1875 0.1875 Z " fill="#0D0D0D" transform="translate(394,106)"/>
<path d="M0 0 C4.10284014 1.37732999 6.66842384 3.23643659 9.8125 6.1875 C12.95417796 9.10443796 16.10929285 11.97262289 19.375 14.75 C22.29667753 17.2875526 24.58076781 19.97595976 27 23 C28.18838781 24.07930367 29.39661556 25.136919 30.6171875 26.1796875 C35.60857639 30.49954868 40.38742138 35.02821114 45.17578125 39.5703125 C49.01472558 43.19391953 52.92763842 46.64208782 57 50 C58.66666667 51.66666667 60.33333333 53.33333333 62 55 C63.32229022 56.01455722 64.65382797 57.01735122 66 58 C66.02501826 53.64412803 66.04300806 49.28829593 66.05493164 44.93237305 C66.05991084 43.4554776 66.06669663 41.97858695 66.07543945 40.50170898 C66.98482609 26.35477942 66.98482609 26.35477942 64 13 C60.95090228 12.18271608 57.88141049 11.58917061 54.78515625 10.9765625 C52 10 52 10 50.62109375 7.8984375 C50.41613281 7.27195313 50.21117187 6.64546875 50 6 C52.92751462 3.07248538 56.12415268 3.5313876 60.0625 3.375 C61.25794434 3.31916748 61.25794434 3.31916748 62.47753906 3.26220703 C68.06688495 3.0233555 73.65575749 2.90105725 79.25 2.875 C79.939729 2.87032715 80.62945801 2.8656543 81.34008789 2.86083984 C85.32797244 2.87357287 89.08730708 3.23447312 93 4 C92.67 5.65 92.34 7.3 92 9 C91.22914063 9.14695313 90.45828125 9.29390625 89.6640625 9.4453125 C88.66117187 9.66960937 87.65828125 9.89390625 86.625 10.125 C85.62726563 10.33382812 84.62953125 10.54265625 83.6015625 10.7578125 C80.80911153 11.7544709 80.80911153 11.7544709 79.87695312 14.38061523 C78.68285099 19.30894603 78.53056738 24.09664951 78.3671875 29.15234375 C78.32562531 30.24349991 78.28406311 31.33465607 78.24124146 32.45887756 C78.15485168 34.77443463 78.07275089 37.09015512 77.99462891 39.40600586 C77.87739447 42.86681432 77.74658592 46.32688688 77.61328125 49.78710938 C77.07997158 64.19614602 76.88096317 78.58176223 77 93 C74.65726356 92.7408832 72.32222223 92.4035337 70 92 C68.8125 90.0625 68.8125 90.0625 68 88 C67.34 87.67 66.68 87.34 66 87 C63.47154472 85.73577236 63.23577236 84.47154472 62 82 C60.68596724 81.29605388 59.3479743 80.63654342 58 80 C55.85776242 78.44057705 53.96937285 76.79033895 52 75 C52 74.34 52 73.68 52 73 C50.515 72.505 50.515 72.505 49 72 C44.37959668 67.83036773 44.37959668 67.83036773 43 64.8125 C41.5742841 62.22838994 39.70731967 62.07033568 37 61 C34.44190274 58.6914732 32.27062994 56.3563683 30.1875 53.61328125 C27.85842136 50.83086409 25.4099659 48.74321863 22.5625 46.5 C18.79182545 43.52121955 15.39313867 40.39880335 12 37 C11.01 36.34 10.02 35.68 9 35 C9.0721875 36.093125 9.144375 37.18625 9.21875 38.3125 C9.86368371 48.82988055 10.09005488 59.27481111 9.875 69.8125 C9.80968453 75.24094112 9.79911716 79.97902569 12 85 C14.04346737 86.42783404 14.04346737 86.42783404 16.5 86.875 C17.2940625 87.07867187 18.088125 87.28234375 18.90625 87.4921875 C19.5971875 87.65976563 20.288125 87.82734375 21 88 C21.99 88.495 21.99 88.495 23 89 C22.505 90.98 22.505 90.98 22 93 C14.69933746 94.16589633 7.56500348 94.18388535 0.1875 94.1875 C-1.16080924 94.19965569 -2.50911658 94.21202367 -3.85742188 94.22460938 C-5.12779297 94.22654297 -6.39816406 94.22847656 -7.70703125 94.23046875 C-8.8669458 94.23457764 -10.02686035 94.23868652 -11.22192383 94.24291992 C-14 94 -14 94 -16 92 C-15.67 90.68 -15.34 89.36 -15 88 C-10.05 87.01 -10.05 87.01 -5 86 C-4.00008512 82.00034048 -3.84819331 78.42049415 -3.84228516 74.34155273 C-3.83720444 73.57525543 -3.83212372 72.80895813 -3.82688904 72.0194397 C-3.81620672 70.35907055 -3.80757819 68.6986872 -3.80076981 67.03829765 C-3.78896405 64.4116911 -3.76950931 61.78524771 -3.74765015 59.15870667 C-3.68607306 51.69220375 -3.63190596 44.22572027 -3.59863281 36.7590332 C-3.57772316 32.18961603 -3.54245686 27.62050103 -3.49787521 23.05125618 C-3.48369275 21.30934255 -3.47498772 19.56737552 -3.47182083 17.82540703 C-3.46692833 15.39296537 -3.44381686 12.96133111 -3.41650391 10.52905273 C-3.41951004 9.8074144 -3.42251617 9.08577606 -3.4256134 8.3422699 C-3.34366175 3.44377072 -3.34366175 3.44377072 -1.47396851 1.0294342 C-0.9875589 0.68972092 -0.50114929 0.35000763 0 0 Z " fill="#EDEDEB" transform="translate(287,141)"/>
<path d="M0 0 C-0.33 0.66 -0.66 1.32 -1 2 C-1.99 1.67 -2.98 1.34 -4 1 C-3.814375 1.763125 -3.62875 2.52625 -3.4375 3.3125 C-3 6 -3 6 -4 9 C-2.89785156 9.80244141 -2.89785156 9.80244141 -1.7734375 10.62109375 C2.7063483 14.46361425 5.64672927 19.41553199 8.87451172 24.30273438 C9.92308624 25.88401206 10.9939117 27.45047227 12.06640625 29.015625 C15.60829895 34.30997818 17.93011382 38.69955914 19 45 C15.16655691 43.5262357 13.93320724 41.64683631 11.9375 38.125 C3.06621208 23.74674733 -10.02451733 11.91092859 -26 6 C-27.0415625 5.56945312 -28.083125 5.13890625 -29.15625 4.6953125 C-38.22177894 1.01504043 -46.2790546 -0.14692191 -55.96875 -0.23828125 C-56.80732544 -0.246353 -57.64590088 -0.25442474 -58.5098877 -0.26274109 C-60.27805572 -0.27649401 -62.04624931 -0.28725495 -63.81445312 -0.29516602 C-65.59057619 -0.30663008 -67.36666634 -0.32699248 -69.14257812 -0.35668945 C-84.6087397 -0.61436284 -98.44146798 1.07688732 -112.5 8 C-113.28624756 8.38099854 -114.07249512 8.76199707 -114.88256836 9.15454102 C-131.04845603 17.31313281 -144.92064492 29.29301653 -154.40625 44.7265625 C-154.9321875 45.47679687 -155.458125 46.22703125 -156 47 C-156.66 47 -157.32 47 -158 47 C-156.71687861 34.16878612 -146.19708645 20.5494043 -137 12 C-136.34 12 -135.68 12 -135 12 C-134.7628125 11.41863281 -134.525625 10.83726563 -134.28125 10.23828125 C-131.72628826 5.77488773 -127.0514085 3.04569919 -123 0 C-121.79923828 -0.92232422 -121.79923828 -0.92232422 -120.57421875 -1.86328125 C-87.15569241 -26.53063866 -32.21279492 -27.53070264 0 0 Z " fill="#838381" transform="translate(387,102)"/>
<path d="M0 0 C0 0.33 0 0.66 0 1 C-0.7528125 1.06316406 -1.505625 1.12632813 -2.28125 1.19140625 C-17.48011793 2.94370292 -32.51286356 9.68493174 -43 21 C-43.51949219 21.48855469 -44.03898437 21.97710937 -44.57421875 22.48046875 C-49.824172 27.44727846 -53.90472476 33.06532147 -58 39 C-58.4640625 39.63421875 -58.928125 40.2684375 -59.40625 40.921875 C-64.8639385 48.82852629 -68.3224718 59.01055197 -70.25 68.375 C-71 72 -71 72 -73 74 C-75.98450615 81.72162334 -76.54394844 89.42590682 -76.5 97.625 C-76.49863037 98.78346436 -76.49726074 99.94192871 -76.49584961 101.13549805 C-76.29755399 112.61098245 -74.17039463 123.46674422 -71.55517578 134.60400391 C-69.73332405 142.4666481 -69.73332405 142.4666481 -71 145 C-74.98736724 143.67087759 -75.45577716 141.98825353 -77.5 138.375 C-78.0878125 137.35148438 -78.675625 136.32796875 -79.28125 135.2734375 C-82.72294275 128.71857721 -84.87731561 122.27756018 -86.625 115.125 C-86.8415625 114.27808594 -87.058125 113.43117188 -87.28125 112.55859375 C-92.88550979 89.96858359 -90.49304512 67.48438292 -82 46 C-81.67 46.66 -81.34 47.32 -81 48 C-80.34 48 -79.68 48 -79 48 C-78.7421875 47.27167969 -78.484375 46.54335937 -78.21875 45.79296875 C-69.81632711 26.5374163 -46.88373328 12.4262573 -28.12451172 4.79736328 C-19.06713627 1.39798518 -9.7262123 -0.84169145 0 0 Z " fill="#2F2E2E" transform="translate(310,101)"/>
<path d="M0 0 C0 0.66 0 1.32 0 2 C0.721875 2.226875 1.44375 2.45375 2.1875 2.6875 C10.91903459 6.76221614 16.65876615 17.30855586 21.75 25.1875 C22.12672852 25.76943115 22.50345703 26.3513623 22.89160156 26.95092773 C27.37906475 34.00193949 29.63838223 37.80808887 28 46 C27.505 46.99 27.505 46.99 27 48 C26.87959211 50.42288258 26.81438818 52.82193713 26.7890625 55.24609375 C26.76095163 56.73894246 26.732287 58.23178083 26.703125 59.72460938 C26.66220332 62.06761917 26.625308 64.41044467 26.59863281 66.75366211 C26.48532849 75.92056812 26.10247749 84.25024921 23 93 C22.67 93 22.34 93 22 93 C22.0721875 92.33613281 22.144375 91.67226562 22.21875 90.98828125 C22.35796875 89.66376953 22.35796875 89.66376953 22.5 88.3125 C22.63921875 87.00732422 22.63921875 87.00732422 22.78125 85.67578125 C22.99159864 83.10276661 23.03719144 80.58015636 23 78 C22.34 78 21.68 78 21 78 C19.18750165 74.87681444 18.76554347 72.52453802 18.6328125 68.9375 C18.16638991 62.75688703 16.26664823 57.67302224 13.875 52 C13.11403509 50.17012117 12.36101654 48.33691113 11.6171875 46.5 C11.28315918 45.7059375 10.94913086 44.911875 10.60498047 44.09375 C10 42 10 42 11 39 C8.24842165 29.28854701 1.26264635 20.34029477 -4.93359375 12.55859375 C-6 11 -6 11 -6 9 C-6.61875 8.731875 -7.2375 8.46375 -7.875 8.1875 C-10 7 -10 7 -12 4 C-11.625 0.3125 -11.625 0.3125 -11 -3 C-6.57716576 -5.12296044 -3.74455635 -2.37635307 0 0 Z " fill="#3A3A39" transform="translate(394,106)"/>
<path d="M0 0 C0.689729 -0.00467285 1.37945801 -0.0093457 2.09008789 -0.01416016 C6.07797244 -0.00142713 9.83730708 0.35947312 13.75 1.125 C13.42 2.775 13.09 4.425 12.75 6.125 C11.97914063 6.27195313 11.20828125 6.41890625 10.4140625 6.5703125 C9.41117187 6.79460937 8.40828125 7.01890625 7.375 7.25 C6.37726563 7.45882812 5.37953125 7.66765625 4.3515625 7.8828125 C1.55911153 8.8794709 1.55911153 8.8794709 0.62695312 11.50561523 C-0.56714901 16.43394603 -0.71943262 21.22164951 -0.8828125 26.27734375 C-0.92437469 27.36849991 -0.96593689 28.45965607 -1.00875854 29.58387756 C-1.09514832 31.89943463 -1.17724911 34.21515512 -1.25537109 36.53100586 C-1.37260553 39.99181432 -1.50341408 43.45188688 -1.63671875 46.91210938 C-2.17002842 61.32114602 -2.36903683 75.70676223 -2.25 90.125 C-4.5929634 89.86794344 -6.92805699 89.53013728 -9.25 89.125 C-10.5625 87.125 -10.5625 87.125 -11.25 85.125 C-11.91 84.795 -12.57 84.465 -13.25 84.125 C-10.8125 84.5 -10.8125 84.5 -8.25 85.125 C-7.755 86.115 -7.755 86.115 -7.25 87.125 C-5.22536745 87.77713292 -5.22536745 87.77713292 -3.25 88.125 C-2.59315462 76.18040473 -2.59315462 76.18040473 -6.02734375 65.12109375 C-8.00816716 63.23340128 -10.01500649 61.69269483 -12.25 60.125 C-12.91 59.135 -13.57 58.145 -14.25 57.125 C-16.30003955 55.93267387 -16.30003955 55.93267387 -18.25 55.125 C-17.92 54.135 -17.59 53.145 -17.25 52.125 C-15.93 53.115 -14.61 54.105 -13.25 55.125 C-13.22498174 50.76912803 -13.20699194 46.41329593 -13.19506836 42.05737305 C-13.19008916 40.5804776 -13.18330337 39.10358695 -13.17456055 37.62670898 C-12.26517391 23.47977942 -12.26517391 23.47977942 -15.25 10.125 C-18.29909772 9.30771608 -21.36858951 8.71417061 -24.46484375 8.1015625 C-27.25 7.125 -27.25 7.125 -28.62890625 5.0234375 C-28.83386719 4.39695313 -29.03882813 3.77046875 -29.25 3.125 C-26.32248538 0.19748538 -23.12584732 0.6563876 -19.1875 0.5 C-17.99205566 0.44416748 -17.99205566 0.44416748 -16.77246094 0.38720703 C-11.18311505 0.1483555 -5.59424251 0.02605725 0 0 Z " fill="#666464" transform="translate(366.25,143.875)"/>
<path d="M0 0 C0.33 0 0.66 0 1 0 C-0.15568923 15.31288235 -8.20910933 32.46874449 -18.25 43.98046875 C-19.79130483 45.75916205 -21.02675949 47.49789932 -22.25 49.5 C-24.02122393 52.0303199 -25.12757262 52.97413308 -28 54 C-27.67 54.66 -27.34 55.32 -27 56 C-16.34968968 50.88924176 -16.34968968 50.88924176 -8.5 42.4375 C-7 40 -7 40 -4.125 38.125 C-0.27732086 35.50857818 1.46816329 32.87222084 4 29 C5.24218446 32.47506817 5.24218446 32.47506817 4.20703125 34.71875 C-3.85812908 45.0204674 -13.10346907 53.76389004 -24 61 C-25.01126953 61.68642578 -25.01126953 61.68642578 -26.04296875 62.38671875 C-27.99498887 63.6625752 -29.97411246 64.84501984 -32 66 C-32.82242188 66.47050781 -33.64484375 66.94101562 -34.4921875 67.42578125 C-37.60863825 69.09623338 -40.76917969 70.56287926 -44 72 C-44.5892627 72.28085449 -45.17852539 72.56170898 -45.78564453 72.85107422 C-65.27213313 81.83039131 -94.06208817 80.3347908 -115 77 C-115.33 76.34 -115.66 75.68 -116 75 C-117.97151049 74.47426387 -119.9454412 73.95489819 -121.93359375 73.49609375 C-125.1354417 72.72740814 -128.0251463 71.98870105 -130.375 69.60546875 C-132.17842496 67.82371957 -134.04394371 66.60063016 -136.1875 65.25 C-140.83000661 62.21305848 -144.95060441 58.78371126 -149 55 C-149.56976563 54.47792969 -150.13953125 53.95585937 -150.7265625 53.41796875 C-152 52 -152 52 -152 50 C-149.05043472 51.36944102 -146.47531189 52.87830409 -144 55 C-144 55.66 -144 56.32 -144 57 C-143.25363281 57.27328125 -142.50726563 57.5465625 -141.73828125 57.828125 C-139.18703318 58.91995727 -137.38369966 60.08607684 -135.1875 61.75 C-118.04776808 73.29884737 -94.01212358 76.50617007 -74.02124023 72.86816406 C-60.29219987 70.11444928 -48.14603214 65.70414524 -37 57 C-36.27039063 56.47148437 -35.54078125 55.94296875 -34.7890625 55.3984375 C-16.22909021 41.9441825 -7.30703817 21.06146297 0 0 Z " fill="#494747" transform="translate(415,201)"/>
<path d="M0 0 C0.33 0 0.66 0 1 0 C1.33 7.26 1.66 14.52 2 22 C2.33 22 2.66 22 3 22 C3.33 24.97 3.66 27.94 4 31 C5.65 30.67 7.3 30.34 9 30 C9 31.32 9 32.64 9 34 C9.66 34 10.32 34 11 34 C11.33 33.34 11.66 32.68 12 32 C12.76757891 43.62333778 13.11276756 55.16188938 12.875 66.8125 C12.80968453 72.24094112 12.79911716 76.97902569 15 82 C17.04346737 83.42783404 17.04346737 83.42783404 19.5 83.875 C20.2940625 84.07867187 21.088125 84.28234375 21.90625 84.4921875 C22.5971875 84.65976563 23.288125 84.82734375 24 85 C24.99 85.495 24.99 85.495 26 86 C25.505 87.98 25.505 87.98 25 90 C17.69933746 91.16589633 10.56500348 91.18388535 3.1875 91.1875 C1.83919076 91.19965569 0.49088342 91.21202367 -0.85742188 91.22460938 C-2.12779297 91.22654297 -3.39816406 91.22847656 -4.70703125 91.23046875 C-5.8669458 91.23457764 -7.02686035 91.23868652 -8.22192383 91.24291992 C-11 91 -11 91 -13 89 C-12.67 87.68 -12.34 86.36 -12 85 C-7.05 84.01 -7.05 84.01 -2 83 C-0.99870283 78.99481131 -0.82715301 75.38097109 -0.79467773 71.29394531 C-0.78477814 70.52282913 -0.77487854 69.75171295 -0.76467896 68.95722961 C-0.73314922 66.41422573 -0.70834032 63.87120318 -0.68359375 61.328125 C-0.66301686 59.56263754 -0.64202019 57.79715493 -0.62062073 56.03167725 C-0.56547601 51.38913909 -0.51603325 46.74655702 -0.46777344 42.10394287 C-0.41750289 37.36482851 -0.36184583 32.62577775 -0.30664062 27.88671875 C-0.19915202 18.5912002 -0.09768644 9.29562637 0 0 Z M9 29 C11 30 11 30 11 30 Z " fill="#373434" transform="translate(284,144)"/>
<path d="M0 0 C3.00646564 0.98127698 6.00447405 1.98584074 9 3 C9.65742188 3.2165625 10.31484375 3.433125 10.9921875 3.65625 C34.47009153 11.83941987 56.47333139 31.07734417 68 53 C68.21484375 55.8515625 68.21484375 55.8515625 68 58 C65.25491856 54.62799309 62.68867045 51.18063539 60.1875 47.625 C51.55733694 35.80782974 39.83546158 26.11912078 26 21 C24.9584375 20.56945312 23.916875 20.13890625 22.84375 19.6953125 C11.92973881 15.26462447 2.18244496 14.7996083 -9.5 14.4375 C-10.799375 14.39431641 -12.09875 14.35113281 -13.4375 14.30664062 C-16.62490845 14.2011749 -19.81238698 14.09905552 -23 14 C-19.086744 11.39116267 -17.37526508 10.87262683 -12.73046875 10.8671875 C-11.67666016 10.86589844 -10.62285156 10.86460938 -9.53710938 10.86328125 C-7.87905273 10.86908203 -7.87905273 10.86908203 -6.1875 10.875 C-4.5468457 10.86919922 -4.5468457 10.86919922 -2.87304688 10.86328125 C-1.2865332 10.86521484 -1.2865332 10.86521484 0.33203125 10.8671875 C1.78186401 10.86887939 1.78186401 10.86887939 3.26098633 10.87060547 C5.93858759 10.9970988 8.39085493 11.40211421 11 12 C11 11.01 11 10.02 11 9 C7.7 8.34 4.4 7.68 1 7 C0.67 4.69 0.34 2.38 0 0 Z " fill="#1F1E1E" transform="translate(335,87)"/>
<path d="M0 0 C2.94956528 1.36944102 5.52468811 2.87830409 8 5 C8 5.66 8 6.32 8 7 C8.74636719 7.27328125 9.49273437 7.5465625 10.26171875 7.828125 C12.81296682 8.91995727 14.61630034 10.08607684 16.8125 11.75 C34.0486367 23.36380546 58.21100556 26.54616229 78.28491211 22.7644043 C84.2551282 21.54937046 89.92536517 20.29920402 95.4375 17.625 C97.2009375 16.820625 97.2009375 16.820625 99 16 C101.22265625 16.8984375 101.22265625 16.8984375 103 18 C101.02 19.32 99.04 20.64 97 22 C97.78375 21.79375 98.5675 21.5875 99.375 21.375 C100.24125 21.25125 101.1075 21.1275 102 21 C102.99 21.99 102.99 21.99 104 23 C92.37700835 27.81003843 82.39344077 28.66372612 69.9375 28.375 C68.29364094 28.35842655 66.64975771 28.34409596 65.00585938 28.33203125 C43.97014112 28.12018907 43.97014112 28.12018907 37 27 C36.505 26.01 36.505 26.01 36 25 C34.02848951 24.47426387 32.0545588 23.95489819 30.06640625 23.49609375 C26.8645583 22.72740814 23.9748537 21.98870105 21.625 19.60546875 C19.82157504 17.82371957 17.95605629 16.60063016 15.8125 15.25 C11.16999339 12.21305848 7.04939559 8.78371126 3 5 C2.14535156 4.21689453 2.14535156 4.21689453 1.2734375 3.41796875 C0 2 0 2 0 0 Z " fill="#3E3D3D" transform="translate(263,251)"/>
<path d="M0 0 C0.495 0.99 0.495 0.99 1 2 C0.34 2.66 -0.32 3.32 -1 4 C-1 4.66 -1 5.32 -1 6 C0.98 6.66 2.96 7.32 5 8 C3.72753547 11.8173936 2.64286149 11.97612084 -0.875 13.75 C-11.05259623 19.07671595 -22.36807886 25.24573752 -30 34 C-30.15339844 34.64453125 -30.30679688 35.2890625 -30.46484375 35.953125 C-31.09435914 38.3609065 -31.99310285 39.38636917 -33.6875 41.1875 C-36.80152327 44.63918845 -39.25386485 48.33350819 -41.703125 52.27734375 C-42.13109375 52.84582031 -42.5590625 53.41429687 -43 54 C-43.66 54 -44.32 54 -45 54 C-43.71687861 41.16878612 -33.19708645 27.5494043 -24 19 C-23.34 19 -22.68 19 -22 19 C-21.7628125 18.41863281 -21.525625 17.83726563 -21.28125 17.23828125 C-19.72081094 14.51227033 -17.9778393 13.11253021 -15.5 11.1875 C-14.61570312 10.50042969 -13.73140625 9.81335938 -12.8203125 9.10546875 C-8.61680408 5.96739252 -4.33579645 2.95203163 0 0 Z " fill="#72716F" transform="translate(274,95)"/>
<path d="M0 0 C0 0.33 0 0.66 0 1 C-0.7528125 1.06316406 -1.505625 1.12632813 -2.28125 1.19140625 C-17.59079666 2.95646321 -32.34926748 9.7406542 -43 21 C-44.31175986 22.02813611 -45.6369893 23.04084432 -47 24 C-47 23.34 -47 22.68 -47 22 C-52.0766574 25.07271369 -56.22948725 28.87102145 -60.58984375 32.8828125 C-62.53211268 34.58898715 -64.37687645 36.0162268 -66.5625 37.375 C-69.28413025 38.82915641 -69.28413025 38.82915641 -70 42 C-71.84765625 43.60546875 -71.84765625 43.60546875 -74.0625 45.1875 C-74.79597656 45.71730469 -75.52945313 46.24710938 -76.28515625 46.79296875 C-76.85105469 47.19128906 -77.41695312 47.58960938 -78 48 C-76.66093189 37.63597967 -65.07602674 27.83448567 -57.26513672 21.61962891 C-41.21709345 9.45003804 -20.81244917 -1.80107733 0 0 Z " fill="#1A1919" transform="translate(310,101)"/>
<path d="M0 0 C15.2143173 0.07314576 32.5163229 8.38478224 44 18 C43.67 18.66 43.34 19.32 43 20 C42.01 19.67 41.02 19.34 40 19 C40.2784375 20.175625 40.2784375 20.175625 40.5625 21.375 C41 24 41 24 40 26 C34.05726724 24.14289601 29.5611815 19.99105548 24.71875 16.2265625 C18.96973224 11.95213047 13.41474806 9.42830305 6.58984375 7.23828125 C4 6 4 6 3.25390625 3.91796875 C3.17011719 3.28503906 3.08632813 2.65210937 3 2 C2.34 1.67 1.68 1.34 1 1 C1 1.66 1 2.32 1 3 C0.34 2.67 -0.32 2.34 -1 2 C-0.67 1.34 -0.34 0.68 0 0 Z " fill="#71706F" transform="translate(343,84)"/>
<path d="M0 0 C0.33 0 0.66 0 1 0 C-0.15568923 15.31288235 -8.20910933 32.46874449 -18.25 43.98046875 C-19.79130483 45.75916205 -21.02675949 47.49789932 -22.25 49.5 C-24.02122393 52.0303199 -25.12757262 52.97413308 -28 54 C-27.67 54.66 -27.34 55.32 -27 56 C-25.515 56.495 -25.515 56.495 -24 57 C-25.69672726 58.18348236 -27.40797692 59.34616049 -29.125 60.5 C-30.55199219 61.47453125 -30.55199219 61.47453125 -32.0078125 62.46875 C-35.31017823 64.15873351 -37.34474108 64.30370104 -41 64 C-41.495 64.99 -41.495 64.99 -42 66 C-44.66666667 66 -47.33333333 66 -50 66 C-45.78446117 62.51759836 -41.36267083 59.65108872 -36.71875 56.78125 C-16.87607055 43.78087381 -7.49678098 21.6083687 0 0 Z " fill="#353435" transform="translate(415,201)"/>
<path d="M0 0 C2.6080523 2.6080523 2.25291786 3.7038194 2.25878906 7.3359375 C2.26824554 9.007771 2.26824554 9.007771 2.27789307 10.71337891 C2.2738446 11.92171387 2.26979614 13.13004883 2.265625 14.375 C2.26753845 15.61040527 2.2694519 16.84581055 2.27142334 18.11865234 C2.2731361 21.40591407 2.26506699 24.69298787 2.25390625 27.98022461 C2.25000397 29.9979453 2.25389171 32.01549201 2.26074219 34.03320312 C2.27306004 37.89721828 2.27160978 41.76097428 2.265625 45.625 C2.26967346 46.83333496 2.27372192 48.04166992 2.27789307 49.28662109 C2.27158875 50.40117676 2.26528442 51.51573242 2.25878906 52.6640625 C2.25719788 53.64842285 2.25560669 54.6327832 2.25396729 55.64697266 C2 58 2 58 0 60 C-5.63646793 40.75045551 -7.14677928 19.047443 0 0 Z " fill="#0C0B0B" transform="translate(237,171)"/>
<path d="M0 0 C2.07182567 3.69697332 3.17517477 7.6495095 4.375 11.6875 C6.20731882 17.67325385 8.1695134 23.40055913 11 29 C11.41765625 29.86882812 11.8353125 30.73765625 12.265625 31.6328125 C15.468824 37.95121052 19.23731429 42.79546167 24.2421875 47.80859375 C26 50 26 50 26 54 C25.34 54 24.68 54 24 54 C22.0546875 51.8828125 22.0546875 51.8828125 19.875 49.125 C19.15054687 48.22007812 18.42609375 47.31515625 17.6796875 46.3828125 C16 44 16 44 16 42 C15.34 42 14.68 42 14 42 C13.34 41.34 12.68 40.68 12 40 C11.67 40.99 11.34 41.98 11 43 C6.52738316 40.76369158 4.77314856 34.41159362 3 30 C0.05975263 20.15130508 -0.43120922 10.2212557 0 0 Z " fill="#191818" transform="translate(238,200)"/>
<path d="M0 0 C1.03435181 -0.00676758 1.03435181 -0.00676758 2.08959961 -0.01367188 C6.07771418 -0.00192052 9.83713499 0.35943946 13.75 1.125 C13.75 2.115 13.75 3.105 13.75 4.125 C12.46802734 4.30675781 12.46802734 4.30675781 11.16015625 4.4921875 C10.05542969 4.65976563 8.95070313 4.82734375 7.8125 5 C6.71035156 5.16242188 5.60820312 5.32484375 4.47265625 5.4921875 C3.57417969 5.70101562 2.67570312 5.90984375 1.75 6.125 C1.42 6.785 1.09 7.445 0.75 8.125 C0.09 8.125 -0.57 8.125 -1.25 8.125 C-1.58 9.115 -1.91 10.105 -2.25 11.125 C-3.57 11.125 -4.89 11.125 -6.25 11.125 C-6.91 10.465 -7.57 9.805 -8.25 9.125 C-10.85280568 9.44541397 -10.85280568 9.44541397 -13.25 10.125 C-13.45367187 9.49078125 -13.65734375 8.8565625 -13.8671875 8.203125 C-15.12221871 5.83435435 -15.12221871 5.83435435 -18.0703125 5.296875 C-19.16085937 5.15765625 -20.25140625 5.0184375 -21.375 4.875 C-22.47070312 4.72546875 -23.56640625 4.5759375 -24.6953125 4.421875 C-25.53835938 4.32390625 -26.38140625 4.2259375 -27.25 4.125 C-27.25 3.135 -27.25 2.145 -27.25 1.125 C-18.16856033 0.53019226 -9.10324677 0.02427802 0 0 Z " fill="#B6B3B0" transform="translate(366.25,143.875)"/>
<path d="M0 0 C2.22265625 0.8984375 2.22265625 0.8984375 4 2 C2.02 3.32 0.04 4.64 -2 6 C-1.21625 5.79375 -0.4325 5.5875 0.375 5.375 C1.24125 5.25125 2.1075 5.1275 3 5 C3.99 5.99 3.99 5.99 5 7 C-6.62299165 11.81003843 -16.60655923 12.66372612 -29.0625 12.375 C-30.70635906 12.35842655 -32.35024229 12.34409596 -33.99414062 12.33203125 C-55.02985888 12.12018907 -55.02985888 12.12018907 -62 11 C-62.33 10.34 -62.66 9.68 -63 9 C-64.96692641 8.47548629 -66.93655523 7.95772309 -68.921875 7.5078125 C-71.39152777 6.90432592 -73.67326383 6.01794707 -76 5 C-76 4.67 -76 4.34 -76 4 C-69.42583407 3.4809869 -63.35837472 5.56069655 -57.375 8.125 C-49.97999133 10.84947688 -41.54869781 10.15461275 -33.79882812 10.13037109 C-31.74081174 10.12497591 -29.68301006 10.13036083 -27.625 10.13671875 C-26.32046875 10.13542969 -25.0159375 10.13414062 -23.671875 10.1328125 C-21.89441895 10.13112061 -21.89441895 10.13112061 -20.08105469 10.12939453 C-16.81203708 10.09581989 -16.81203708 10.09581989 -13 9 C-17.95 9 -22.9 9 -28 9 C-28 8.67 -28 8.34 -28 8 C-26.73285156 7.75765625 -25.46570313 7.5153125 -24.16015625 7.265625 C-13.57999442 5.35937688 -13.57999442 5.35937688 -3.5625 1.625 C-2.386875 1.08875 -1.21125 0.5525 0 0 Z " fill="#383634" transform="translate(362,267)"/>
<path d="M0 0 C2.475 0.495 2.475 0.495 5 1 C5 1.66 5 2.32 5 3 C6.3921875 3.4021875 6.3921875 3.4021875 7.8125 3.8125 C10.75781025 4.90977245 12.15017877 5.53357169 14 8 C14 8.66 14 9.32 14 10 C14.70125 10.2475 15.4025 10.495 16.125 10.75 C19.37903207 12.16479655 22.04823667 14.03215778 25 16 C29.54914016 18.51615768 34.05723238 20.38603506 39 22 C40.48441811 22.65489034 41.9632076 23.32262241 43.4375 24 C47.24315658 25.72867112 50.95335778 26.96681475 55 28 C55 28.66 55 29.32 55 30 C34.29102798 29.91389201 16.54929809 16.39209299 1.46875 3.515625 C0 2 0 2 0 0 Z " fill="#232222" transform="translate(250,261)"/>
<path d="M0 0 C0.99 0.33 1.98 0.66 3 1 C3 2.32 3 3.64 3 5 C3.78375 5.061875 4.5675 5.12375 5.375 5.1875 C15.25978646 7.40305559 23.34729134 13.74910279 31.30566406 19.72998047 C32.86636055 20.89982818 34.44417452 22.04674665 36.0234375 23.19140625 C43.42099432 28.81727929 48.08252451 35.23020351 53 43 C53.67417969 43.98871094 54.34835937 44.97742188 55.04296875 45.99609375 C58.60499889 51.29140041 60.92833029 55.68905613 62 62 C60.515 61.505 60.515 61.505 59 61 C58.773125 59.88625 58.54625 58.7725 58.3125 57.625 C56.95382112 51.37730452 52.8891133 46.91858447 49 42 C48.31679688 41.08863281 47.63359375 40.17726562 46.9296875 39.23828125 C33.2749488 21.57781662 13.93017907 10.12262748 -7 3 C-7 2.34 -7 1.68 -7 1 C-4.69 1.33 -2.38 1.66 0 2 C0 1.34 0 0.68 0 0 Z " fill="#B8B8B7" transform="translate(344,85)"/>
<path d="M0 0 C0 3.41321235 -0.66867466 4.39472885 -2.5 7.1875 C-3.19609375 8.26064453 -3.19609375 8.26064453 -3.90625 9.35546875 C-4.2671875 9.89816406 -4.628125 10.44085938 -5 11 C-4.34 11 -3.68 11 -3 11 C-4.71302861 14.99419736 -7.05585904 16.84731004 -10.44140625 19.4375 C-12.2858019 21.2865182 -12.43604787 22.49624701 -13 25 C-14.19921875 26.60546875 -14.19921875 26.60546875 -15.6875 28.1875 C-18.80152327 31.63918845 -21.25386485 35.33350819 -23.703125 39.27734375 C-24.13109375 39.84582031 -24.5590625 40.41429687 -25 41 C-25.66 41 -26.32 41 -27 41 C-25.71687861 28.16878612 -15.19708645 14.5494043 -6 6 C-5.34 6 -4.68 6 -4 6 C-3.566875 5.071875 -3.566875 5.071875 -3.125 4.125 C-2 2 -2 2 0 0 Z " fill="#5C5B58" transform="translate(256,108)"/>
<path d="M0 0 C8.54312769 0.94070395 16.53778852 11.19826272 21.859375 17.3046875 C25.57489191 21.98298434 28.80120358 26.96016967 32 32 C32.66 32.99 33.32 33.98 34 35 C34.125 37.6875 34.125 37.6875 34 40 C31.25491856 36.62799309 28.68867045 33.18063539 26.1875 29.625 C19.36148973 20.27361596 11.55169718 14.33428339 2 8 C2.33 6.68 2.66 5.36 3 4 C2.34 4 1.68 4 1 4 C1 3.34 1 2.68 1 2 C0.34 1.67 -0.32 1.34 -1 1 C-0.67 0.67 -0.34 0.34 0 0 Z " fill="#1C1C1B" transform="translate(369,105)"/>
<path d="M0 0 C3.04871955 0.92170591 5.71656888 1.82558085 8.4375 3.5 C11.05944872 5.19134633 11.05944872 5.19134633 14.625 5.9375 C18 7 18 7 20 8.9375 C21 11 21 11 20 14 C19.16984375 13.86722656 18.3396875 13.73445313 17.484375 13.59765625 C3.71519454 11.62445779 -10.10960256 11.3601431 -24 11 C-20.086744 8.39116267 -18.37526508 7.87262683 -13.73046875 7.8671875 C-12.67666016 7.86589844 -11.62285156 7.86460938 -10.53710938 7.86328125 C-8.87905273 7.86908203 -8.87905273 7.86908203 -7.1875 7.875 C-5.5468457 7.86919922 -5.5468457 7.86919922 -3.87304688 7.86328125 C-2.2865332 7.86521484 -2.2865332 7.86521484 -0.66796875 7.8671875 C0.78186401 7.86887939 0.78186401 7.86887939 2.26098633 7.87060547 C4.93858759 7.9970988 7.39085493 8.40211421 10 9 C10 8.01 10 7.02 10 6 C6.7 5.34 3.4 4.68 0 4 C0 2.68 0 1.36 0 0 Z " fill="#605F60" transform="translate(336,90)"/>
<path d="M0 0 C9.39090589 0.04514859 17.44001752 3.52715351 26 7 C26 8.32 26 9.64 26 11 C26.99 11 27.98 11 29 11 C29 11.66 29 12.32 29 13 C28.360625 13.12375 27.72125 13.2475 27.0625 13.375 C26.381875 13.58125 25.70125 13.7875 25 14 C24.67 14.66 24.34 15.32 24 16 C23.113125 15.278125 22.22625 14.55625 21.3125 13.8125 C16.85588234 10.55962855 11.89800655 9.02109783 6.6953125 7.30859375 C4 6 4 6 3.2421875 3.91015625 C3.16226562 3.27980469 3.08234375 2.64945312 3 2 C2.34 1.67 1.68 1.34 1 1 C1 1.66 1 2.32 1 3 C0.34 2.67 -0.32 2.34 -1 2 C-0.67 1.34 -0.34 0.68 0 0 Z " fill="#8B8B88" transform="translate(343,84)"/>
<path d="M0 0 C3.7806643 1.93233953 6.69646946 4.581887 9.8125 7.4375 C5.61137728 8.83787424 3.47744039 7.26545408 -0.34765625 5.36328125 C-0.95480469 5.05777344 -1.56195313 4.75226563 -2.1875 4.4375 C-2.29621967 6.98033234 -2.37512401 9.51845088 -2.4375 12.0625 C-2.47101563 12.77535156 -2.50453125 13.48820313 -2.5390625 14.22265625 C-2.63469557 19.43465858 -1.64017121 22.31158879 1.8125 26.4375 C2.864375 27.13875 3.91625 27.84 5 28.5625 C7.8125 30.4375 7.8125 30.4375 8.6875 32.6875 C8.749375 33.55375 8.749375 33.55375 8.8125 34.4375 C7.8225 34.4375 6.8325 34.4375 5.8125 34.4375 C5.8125 35.0975 5.8125 35.7575 5.8125 36.4375 C4.3275 36.9325 4.3275 36.9325 2.8125 37.4375 C3.1425 35.7875 3.4725 34.1375 3.8125 32.4375 C1.33983235 32.78194881 1.33983235 32.78194881 -1.1875 33.4375 C-1.5175 34.0975 -1.8475 34.7575 -2.1875 35.4375 C-2.5175 32.1375 -2.8475 28.8375 -3.1875 25.4375 C-3.5175 25.4375 -3.8475 25.4375 -4.1875 25.4375 C-4.1875 17.1875 -4.1875 8.9375 -4.1875 0.4375 C-2.1875 -0.5625 -2.1875 -0.5625 0 0 Z " fill="#C4C2C0" transform="translate(289.1875,141.5625)"/>
<path d="M0 0 C-3.508263 2.338842 -6.82761394 2.95920493 -10.875 3.8125 C-30.11855373 8.14850259 -49.29314334 16.98668112 -63.23828125 31.296875 C-65 33 -65 33 -67 33 C-64.45777176 25.37331527 -54.428828 20.27064392 -48 16 C-46.53240234 14.98873047 -46.53240234 14.98873047 -45.03515625 13.95703125 C-36.69507229 8.46226642 -28.58248003 5.54349779 -19 3 C-17.2984375 2.52046875 -17.2984375 2.52046875 -15.5625 2.03125 C-10.23774645 0.59356654 -5.51582254 -0.37607881 0 0 Z " fill="#AAA8A6" transform="translate(310,98)"/>
<path d="M0 0 C0.33 0 0.66 0 1 0 C1.144375 1.093125 1.28875 2.18625 1.4375 3.3125 C1.88437186 5.28589709 1.88437186 5.28589709 3 7 C5.88151723 8.53063581 8.8442508 9.23461307 12 10 C12.66 10.33 13.32 10.66 14 11 C13.67 12.32 13.34 13.64 13 15 C3.43 15 -6.14 15 -16 15 C-12.7394904 11.7394904 -9.10916255 11.94532595 -4.6875 11.9375 C-2.8621875 11.9684375 -2.8621875 11.9684375 -1 12 C-1.020625 10.948125 -1.04125 9.89625 -1.0625 8.8125 C-1.01103198 5.67295096 -0.73482813 3.03116604 0 0 Z " fill="#595553" transform="translate(296,219)"/>
<path d="M0 0 C0 0.33 0 0.66 0 1 C-0.7528125 1.06316406 -1.505625 1.12632813 -2.28125 1.19140625 C-16.21554751 2.797909 -31.15370584 8.6992615 -41 19 C-41 18.34 -41 17.68 -41 17 C-42.32 17.33 -43.64 17.66 -45 18 C-45 18.66 -45 19.32 -45 20 C-45.99 19.67 -46.98 19.34 -48 19 C-47.01 17.515 -47.01 17.515 -46 16 C-44.824375 15.8453125 -44.824375 15.8453125 -43.625 15.6875 C-40.71507388 15.25447779 -40.71507388 15.25447779 -39.375 12.25 C-34.88428605 4.85976996 -23.75975607 3.12725014 -15.87011719 1.17626953 C-10.51919067 -0.03985013 -5.4597442 -0.47247786 0 0 Z " fill="#121110" transform="translate(310,101)"/>
<path d="M0 0 C0.66 0 1.32 0 2 0 C2.64795862 3.04121788 3.29298156 6.08305136 3.9375 9.125 C4.11990234 9.9809375 4.30230469 10.836875 4.49023438 11.71875 C7.21062078 24.57875845 7.21062078 24.57875845 6 27 C1.22212584 25.40737528 -0.07629518 21.40437566 -2.48046875 17.16796875 C-4.36459373 13.23988299 -4.91691059 10.3206491 -5 6 C-2.52806709 8.96631949 -0.74381547 11.51236907 1 15 C0.67 10.05 0.34 5.1 0 0 Z " fill="#3C3B3B" transform="translate(233,219)"/>
<path d="M0 0 C0.33 0.99 0.66 1.98 1 3 C0.54625 3.4125 0.0925 3.825 -0.375 4.25 C-2.0843425 5.88954377 -2.0843425 5.88954377 -2.8125 7.9375 C-4.52626504 10.91403928 -7.16748948 12.13174838 -10 14 C-10.33 14.99 -10.66 15.98 -11 17 C-12.84765625 18.60546875 -12.84765625 18.60546875 -15.0625 20.1875 C-15.79597656 20.71730469 -16.52945313 21.24710938 -17.28515625 21.79296875 C-17.85105469 22.19128906 -18.41695312 22.58960938 -19 23 C-17.92804151 14.39370467 -9.50735388 6.38710055 -3 1 C-2.01 0.67 -1.02 0.34 0 0 Z " fill="#171615" transform="translate(251,126)"/>
<path d="M0 0 C0.33 0 0.66 0 1 0 C1.02493556 3.98355132 1.04297028 7.96707167 1.05493164 11.95068359 C1.06236421 13.96323241 1.07507829 15.97575949 1.08789062 17.98828125 C1.1154807 28.96912972 1.1154807 28.96912972 0.43359375 33.75 C-0.24250525 37.00399431 -0.24250525 37.00399431 1 40 C0.0625 42.1875 0.0625 42.1875 -1 44 C-1.33 43.67 -1.66 43.34 -2 43 C-2.66 43.66 -3.32 44.32 -4 45 C-3.67 37.08 -3.34 29.16 -3 21 C-2.67 21.99 -2.34 22.98 -2 24 C-1.34 24 -0.68 24 0 24 C-0.16749756 23.43829102 -0.33499512 22.87658203 -0.50756836 22.29785156 C-1.03919752 19.81709118 -1.02484355 17.76395494 -0.87890625 15.234375 C-0.83056641 14.34492188 -0.78222656 13.45546875 -0.73242188 12.5390625 C-0.67634766 11.61867187 -0.62027344 10.69828125 -0.5625 9.75 C-0.48418945 8.34621094 -0.48418945 8.34621094 -0.40429688 6.9140625 C-0.27493175 4.60901113 -0.13997966 2.30442711 0 0 Z " fill="#171616" transform="translate(417,160)"/>
<path d="M0 0 C6.57416593 -0.5190131 12.64162528 1.56069655 18.625 4.125 C24.41205415 6.25707258 30.77093117 6.11051717 36.859375 6.02734375 C38.31900818 6.01471298 39.77864371 6.00235092 41.23828125 5.99023438 C43.50512266 5.96533216 45.77183755 5.93718085 48.03857422 5.90405273 C50.24968263 5.87385153 52.46062631 5.85609322 54.671875 5.83984375 C55.9825293 5.82300537 57.29318359 5.80616699 58.64355469 5.78881836 C61.75631526 5.98466778 63.41456125 6.34009593 66 8 C60.84456725 8.02504882 55.68917129 8.04302192 50.53369141 8.05493164 C48.78628928 8.05990588 47.03889119 8.06668766 45.29150391 8.07543945 C21.1312696 8.19326045 21.1312696 8.19326045 14 7 C13.67 6.34 13.34 5.68 13 5 C11.03307359 4.47548629 9.06344477 3.95772309 7.078125 3.5078125 C4.60847223 2.90432592 2.32673617 2.01794707 0 1 C0 0.67 0 0.34 0 0 Z " fill="#211F1F" transform="translate(286,271)"/>
<path d="M0 0 C2.64 1.32 5.28 2.64 8 4 C8 4.66 8 5.32 8 6 C9.175625 6.4640625 9.175625 6.4640625 10.375 6.9375 C13 8 13 8 15 9 C15 9.66 15 10.32 15 11 C15.66 11 16.32 11 17 11 C17.33 11.99 17.66 12.98 18 14 C14.05195052 13.35408749 10.67070821 12.14034269 7 10.5625 C3.34738771 9.00175368 -0.30579988 7.46002395 -4 6 C-2.68 5.67 -1.36 5.34 0 5 C0 4.01 0 3.02 0 2 C0 1.34 0 0.68 0 0 Z " fill="#424242" transform="translate(355,98)"/>
<path d="M0 0 C0.33 0 0.66 0 1 0 C0.01879426 13.00097605 -6.41783599 24.44275266 -12 36 C-12.99 35.34 -13.98 34.68 -15 34 C-14.46890625 32.97261719 -13.9378125 31.94523437 -13.390625 30.88671875 C-9.77751383 23.82538892 -6.36661202 16.87782069 -3.80859375 9.3515625 C-2.70829868 6.15167056 -1.37372062 3.09087139 0 0 Z " fill="#302F30" transform="translate(415,201)"/>
<path d="M0 0 C0.598125 0.495 1.19625 0.99 1.8125 1.5 C3.97029994 3.28276418 3.97029994 3.28276418 7 3 C9.66230666 5.72676929 11.78181754 8.9067118 14 12 C14.59039062 12.80050781 15.18078125 13.60101563 15.7890625 14.42578125 C16.33304687 15.19277344 16.87703125 15.95976562 17.4375 16.75 C17.93121094 17.44609375 18.42492187 18.1421875 18.93359375 18.859375 C20.19980572 21.40107521 20.20095568 23.19642321 20 26 C17.27174794 22.65004448 14.72802238 19.22533774 12.25 15.6875 C9.01001977 11.18076058 5.53903309 7.32360561 1.46875 3.55859375 C0 2 0 2 0 0 Z " fill="#292927" transform="translate(383,119)"/>
<path d="M0 0 C0.66 0.66 1.32 1.32 2 2 C2.99 2.33 3.98 2.66 5 3 C3.30327274 4.18348236 1.59202308 5.34616049 -0.125 6.5 C-1.07632812 7.1496875 -2.02765625 7.799375 -3.0078125 8.46875 C-6.31017823 10.15873351 -8.34474108 10.30370104 -12 10 C-12.33 10.66 -12.66 11.32 -13 12 C-15.66666667 12 -18.33333333 12 -21 12 C-17.53258866 9.04250209 -14.13126473 6.92151848 -10 5 C-9.67 5.66 -9.34 6.32 -9 7 C-8.05125 6.34 -7.1025 5.68 -6.125 5 C-3 3 -3 3 -1 3 C-0.67 2.01 -0.34 1.02 0 0 Z " fill="#313030" transform="translate(386,255)"/>
<path d="M0 0 C1.3921875 0.2784375 1.3921875 0.2784375 2.8125 0.5625 C6.01343771 1.24123881 6.01343771 1.24123881 9 0 C11.04296875 0.77734375 11.04296875 0.77734375 13.1875 1.9375 C13.90292969 2.31777344 14.61835938 2.69804687 15.35546875 3.08984375 C16.16951172 3.54037109 16.16951172 3.54037109 17 4 C17 5.65 17 7.3 17 9 C17.66 9 18.32 9 19 9 C19 9.66 19 10.32 19 11 C17.125 11.625 17.125 11.625 15 12 C14.34 11.34 13.68 10.68 13 10 C13.99 10 14.98 10 16 10 C16 9.34 16 8.68 16 8 C15.43152344 7.81824219 14.86304688 7.63648438 14.27734375 7.44921875 C9.39298997 5.85915366 4.68970973 4.09540222 0 2 C0 1.34 0 0.68 0 0 Z " fill="#262424" transform="translate(293,281)"/>
<path d="M0 0 C0.66 0 1.32 0 2 0 C1.90566198 4.12632982 1.79940196 8.25217263 1.68261719 12.37792969 C1.64459687 13.77823735 1.60969966 15.17863374 1.578125 16.57910156 C1.41028923 23.93240628 1.23899916 30.93714087 -1 38 C-1.33 38 -1.66 38 -2 38 C-1.88205894 32.7487788 -1.75783398 27.49775903 -1.62768555 22.24682617 C-1.584273 20.4591073 -1.54260271 18.67134526 -1.50268555 16.88354492 C-1.4451354 14.31936609 -1.38139797 11.75540588 -1.31640625 9.19140625 C-1.29969376 8.3872377 -1.28298126 7.58306915 -1.26576233 6.75453186 C-1.11387171 1.11387171 -1.11387171 1.11387171 0 0 Z " fill="#605D5E" transform="translate(286,186)"/>
<path d="M0 0 C3.73209414 1.24403138 5.30708475 3.17243898 8 6 C8.598125 6.556875 9.19625 7.11375 9.8125 7.6875 C11 9 11 9 11 11 C10.01 11 9.02 11 8 11 C8 11.66 8 12.32 8 13 C7.01 13.33 6.02 13.66 5 14 C5.33 12.35 5.66 10.7 6 9 C3.52733235 9.34444881 3.52733235 9.34444881 1 10 C0.67 10.66 0.34 11.32 0 12 C0 8.04 0 4.08 0 0 Z " fill="#7E7C7B" transform="translate(287,165)"/>
<path d="M0 0 C0.33 0.66 0.66 1.32 1 2 C3.97 2 6.94 2 10 2 C6.55366118 4.29755922 5.28931609 4.23643976 1.23828125 4.1953125 C0.12001953 4.18886719 -0.99824219 4.18242187 -2.15039062 4.17578125 C-3.90125977 4.15064453 -3.90125977 4.15064453 -5.6875 4.125 C-6.86634766 4.11597656 -8.04519531 4.10695312 -9.25976562 4.09765625 C-12.17338026 4.07406423 -15.08658892 4.0411454 -18 4 C-18 3.01 -18 2.02 -18 1 C-12.06 0.67 -6.12 0.34 0 0 Z " fill="#D3CFCD" transform="translate(357,144)"/>
<path d="M0 0 C0.66 0 1.32 0 2 0 C3 3 3 3 2 6 C0.35 6.33 -1.3 6.66 -3 7 C3.6 7.33 10.2 7.66 17 8 C17 8.33 17 8.66 17 9 C7.43 9 -2.14 9 -12 9 C-11.34 8.67 -10.68 8.34 -10 8 C-9.67 7.01 -9.34 6.02 -9 5 C-6.66989091 4.32215008 -4.33640176 3.65583207 -2 3 C-1.34 2.01 -0.68 1.02 0 0 Z " fill="#0E0C0B" transform="translate(285,226)"/>
<path d="M0 0 C0.969375 0.86625 1.93875 1.7325 2.9375 2.625 C8.50244465 7.39979024 14.66649699 11.32248213 21 15 C20.34 16.32 19.68 17.64 19 19 C3.52434122 7.06654757 3.52434122 7.06654757 0 3 C0 2.01 0 1.02 0 0 Z " fill="#222221" transform="translate(264,254)"/>
<path d="M0 0 C0.66 0 1.32 0 2 0 C3.48886315 1.90732163 4.84778961 3.80363554 6.1875 5.8125 C6.58461182 6.4005542 6.98172363 6.9886084 7.39086914 7.59448242 C8.20616034 8.80671964 9.01790922 10.02134646 9.82617188 11.23828125 C10.89670969 12.84497861 11.98642989 14.43885262 13.078125 16.03125 C16.6142464 21.32057445 18.93134289 25.70679703 20 32 C19.01 31.67 18.02 31.34 17 31 C16.6596875 29.329375 16.6596875 29.329375 16.3125 27.625 C14.457193 18.99782246 7.2237274 11.92764685 1.25 5.75390625 C0 4 0 4 0 0 Z " fill="#838280" transform="translate(386,115)"/>
<path d="M0 0 C0.70382812 -0.01224609 1.40765625 -0.02449219 2.1328125 -0.03710938 C6.56077388 -0.04945499 10.07608462 0.52712171 14.25 2.1875 C14.25 2.5175 14.25 2.8475 14.25 3.1875 C5.34 3.1875 -3.57 3.1875 -12.75 3.1875 C-8.27262211 0.2025814 -5.27045094 0.00472263 0 0 Z " fill="#383735" transform="translate(324.75,97.8125)"/>
<path d="M0 0 C1.31097656 0.01353516 1.31097656 0.01353516 2.6484375 0.02734375 C3.30070312 0.03894531 3.95296875 0.05054687 4.625 0.0625 C4.625 0.3925 4.625 0.7225 4.625 1.0625 C3.84898437 1.13726562 3.07296875 1.21203125 2.2734375 1.2890625 C-5.84201149 2.27686178 -12.13495562 4.43065057 -19.37890625 8.015625 C-22.375 9.0625 -22.375 9.0625 -24.77734375 8.234375 C-25.30457031 7.84765625 -25.83179688 7.4609375 -26.375 7.0625 C-23.80897243 4.49647243 -21.59260439 4.04107301 -18.125 3 C-17.00609375 2.65839844 -15.8871875 2.31679687 -14.734375 1.96484375 C-9.76690768 0.63055892 -5.14193296 -0.06948558 0 0 Z " fill="#3F3D3D" transform="translate(305.375,100.9375)"/>
<path d="M0 0 C0.33 0.66 0.66 1.32 1 2 C2.216875 1.95875 3.43375 1.9175 4.6875 1.875 C8.22269104 1.90007228 10.97579193 1.98386129 14 4 C14.8125 7.125 14.8125 7.125 15 10 C14.34 9.34 13.68 8.68 13 8 C9.93535848 7.20772052 6.85390063 6.59585037 3.75 5.9765625 C1 5 1 5 -0.375 2.8984375 C-0.58125 2.27195313 -0.7875 1.64546875 -1 1 C-0.67 0.67 -0.34 0.34 0 0 Z " fill="#575551" transform="translate(338,146)"/>
<path d="M0 0 C-1.28965176 1.37562854 -2.62689293 2.70766393 -4 4 C-4.66 4 -5.32 4 -6 4 C-6.33 4.99 -6.66 5.98 -7 7 C-8.32 7 -9.64 7 -11 7 C-11.66 6.34 -12.32 5.68 -13 5 C-15.60280568 5.32041397 -15.60280568 5.32041397 -18 6 C-18.33 4.68 -18.66 3.36 -19 2 C-18.15695312 1.93941406 -17.31390625 1.87882813 -16.4453125 1.81640625 C-15.34960938 1.73261719 -14.25390625 1.64882812 -13.125 1.5625 C-12.03445313 1.48128906 -10.94390625 1.40007812 -9.8203125 1.31640625 C-6.26459339 0.91749593 -3.69350534 -0.09719751 0 0 Z " fill="#A6A6A3" transform="translate(371,148)"/>
<path d="M0 0 C0.66015625 1.75390625 0.66015625 1.75390625 1 4 C-1.7422654 9.36715757 -6.27270263 13.39824962 -11 17 C-11.66 16.67 -12.32 16.34 -13 16 C-11.61387367 11.00994522 -9.18965998 9.79310666 -5 7 C-3.1327789 4.75933468 -1.60081915 2.44831164 0 0 Z " fill="#3C3B3C" transform="translate(419,230)"/>
<path d="M0 0 C1.65 0.33 3.3 0.66 5 1 C7.29612756 10.41002278 7.29612756 10.41002278 7 15 C4.38472619 12.63379989 2.73559438 10.057952 1 7 C0.01 7.495 0.01 7.495 -1 8 C-1.625 5.6875 -1.625 5.6875 -2 3 C-1.34 2.01 -0.68 1.02 0 0 Z " fill="#201E1E" transform="translate(228,220)"/>
<path d="M0 0 C0.99 0.33 1.98 0.66 3 1 C2.09378906 1.6290625 1.18757813 2.258125 0.25390625 2.90625 C-6.28425511 7.4872762 -12.52778273 12.08469561 -18.328125 17.6015625 C-20 19 -20 19 -22 19 C-19.15492065 10.46476194 -7.16464238 4.77642825 0 0 Z " fill="#A7A6A5" transform="translate(265,112)"/>
<path d="M0 0 C0.7425 0.33 1.485 0.66 2.25 1 C5.13883312 2.22782871 5.13883312 2.22782871 9 2 C9 2.99 9 3.98 9 5 C9.99 5 10.98 5 12 5 C12 5.66 12 6.32 12 7 C11.360625 7.12375 10.72125 7.2475 10.0625 7.375 C9.381875 7.58125 8.70125 7.7875 8 8 C7.67 8.66 7.34 9.32 7 10 C4.03 7.69 1.06 5.38 -2 3 C-1.34 2.67 -0.68 2.34 0 2 C0 1.34 0 0.68 0 0 Z " fill="#7D7D7C" transform="translate(360,90)"/>
<path d="M0 0 C4.79016959 2.23462006 8.98745115 4.48901975 13 8 C12.67 8.66 12.34 9.32 12 10 C11.01 9.67 10.02 9.34 9 9 C9.185625 9.78375 9.37125 10.5675 9.5625 11.375 C10 14 10 14 9 16 C8.34 16 7.68 16 7 16 C5.90341064 12.71023192 6.20046862 11.28696233 7 8 C6.34 8 5.68 8 5 8 C5 6.68 5 5.36 5 4 C4.360625 3.896875 3.72125 3.79375 3.0625 3.6875 C2.381875 3.460625 1.70125 3.23375 1 3 C0.67 2.01 0.34 1.02 0 0 Z M3 8 C5 9 5 9 5 9 Z " fill="#61605F" transform="translate(374,94)"/>
<path d="M0 0 C0.33 0 0.66 0 1 0 C1.20638953 27.94514191 1.20638953 27.94514191 0 41 C-0.33 41 -0.66 41 -1 41 C-2.24714829 28.68441065 -2.24714829 28.68441065 -2 23 C-1.67 22.67 -1.34 22.34 -1 22 C-0.84285346 20.36743242 -0.74914586 18.72864662 -0.68359375 17.08984375 C-0.62075195 15.60581055 -0.62075195 15.60581055 -0.55664062 14.09179688 C-0.49766602 12.53041992 -0.49766602 12.53041992 -0.4375 10.9375 C-0.39431641 9.89271484 -0.35113281 8.84792969 -0.30664062 7.77148438 C-0.20018775 5.18113116 -0.0981724 2.59067814 0 0 Z " fill="#373636" transform="translate(364,159)"/>
<path d="M0 0 C8.25 0 16.5 0 25 0 C24.67 0.99 24.34 1.98 24 3 C20.37435813 2.89045592 16.74978569 2.7597504 13.125 2.625 C12.09246094 2.5940625 11.05992187 2.563125 9.99609375 2.53125 C9.00996094 2.49257812 8.02382813 2.45390625 7.0078125 2.4140625 C6.09660645 2.3826416 5.18540039 2.3512207 4.24658203 2.31884766 C2 2 2 2 0 0 Z " fill="#969593" transform="translate(318,84)"/>
<path d="M0 0 C3.30553865 3.76147502 5.15899762 7.35747226 7 12 C7.55847795 13.31421645 8.12084835 14.62678706 8.6875 15.9375 C9.120625 16.948125 9.55375 17.95875 10 19 C5.79265309 17.50913577 4.65959473 15.09831143 2.75 11.1875 C1.96882812 9.63095703 1.96882812 9.63095703 1.171875 8.04296875 C0.02981324 5.07741505 -0.2549645 3.13490439 0 0 Z " fill="#565555" transform="translate(228,225)"/>
<path d="M0 0 C2 2 2 2 2 4.1875 C0.59225186 8.14679165 -1.81610445 11.25171205 -5 14 C-5.99 14 -6.98 14 -8 14 C-6.6744419 10.37723685 -5.05653045 7.36494652 -2.875 4.1875 C-2.33617187 3.39730469 -1.79734375 2.60710937 -1.2421875 1.79296875 C-0.83226562 1.20128906 -0.42234375 0.60960938 0 0 Z " fill="#454442" transform="translate(240,126)"/>
<path d="M0 0 C5.19210472 3.80304814 10.15609762 7.76158542 15 12 C14.67 12.99 14.34 13.98 14 15 C13.34773438 14.39671875 12.69546875 13.7934375 12.0234375 13.171875 C7.53597138 9.06829241 3.20930119 5.15299809 -2 2 C-1.34 1.34 -0.68 0.68 0 0 Z " fill="#A7A6A4" transform="translate(371,102)"/>
<path d="M0 0 C0.66 0.33 1.32 0.66 2 1 C1.38332793 3.46070116 0.75711607 5.91826521 0.125 8.375 C-0.04902344 9.07367188 -0.22304687 9.77234375 -0.40234375 10.4921875 C-1.7734375 15.7734375 -1.7734375 15.7734375 -4 18 C-4.60713803 19.85483454 -5.14131052 21.73421385 -5.625 23.625 C-5.88539063 24.62789062 -6.14578125 25.63078125 -6.4140625 26.6640625 C-6.60742188 27.43492187 -6.80078125 28.20578125 -7 29 C-7.97999425 25.92266306 -7.98877524 24.01361694 -7.109375 20.91796875 C-6.89410156 20.15033203 -6.67882812 19.38269531 -6.45703125 18.59179688 C-6.22371094 17.79837891 -5.99039063 17.00496094 -5.75 16.1875 C-5.53214844 15.40568359 -5.31429687 14.62386719 -5.08984375 13.81835938 C-3.7212825 9.02839499 -2.05897555 4.53580201 0 0 Z " fill="#1D1C1D" transform="translate(241,157)"/>
<path d="M0 0 C0.33 0 0.66 0 1 0 C1 7.26 1 14.52 1 22 C-1.31 21.67 -3.62 21.34 -6 21 C-7.3125 19 -7.3125 19 -8 17 C-8.66 16.67 -9.32 16.34 -10 16 C-7.5625 16.375 -7.5625 16.375 -5 17 C-4.67 17.66 -4.34 18.32 -4 19 C-2.68 19.33 -1.36 19.66 0 20 C0 13.4 0 6.8 0 0 Z " fill="#848281" transform="translate(363,212)"/>
<path d="M0 0 C-3.8969495 3.66077074 -6.66824152 4.71938113 -12 5 C-15.4375 4.5625 -15.4375 4.5625 -18 4 C-13.74339803 -0.25660197 -5.75402165 -0.30284324 0 0 Z " fill="#6B6A68" transform="translate(315,83)"/>
<path d="M0 0 C1.21236328 0.01353516 1.21236328 0.01353516 2.44921875 0.02734375 C3.37154297 0.04474609 3.37154297 0.04474609 4.3125 0.0625 C1.95427737 2.87568519 0.34794155 3.43044379 -3.25 3.875 C-5.62691251 4.25096172 -5.62691251 4.25096172 -7.6875 5.0625 C-9.37915301 8.04533157 -9.37915301 8.04533157 -9.6875 11.0625 C-10.0175 11.0625 -10.3475 11.0625 -10.6875 11.0625 C-10.6875 8.7525 -10.6875 6.4425 -10.6875 4.0625 C-10.0275 4.0625 -9.3675 4.0625 -8.6875 4.0625 C-8.3575 3.0725 -8.0275 2.0825 -7.6875 1.0625 C-4.80538698 0.10179566 -2.98899956 -0.04331883 0 0 Z " fill="#514C4B" transform="translate(375.6875,147.9375)"/>
<path d="M0 0 C0.56847656 0.19335938 1.13695312 0.38671875 1.72265625 0.5859375 C6.45364938 2.18136423 11.18794425 3.66900586 16 5 C15.01 5.33 14.02 5.66 13 6 C13 6.66 13 7.32 13 8 C13.66 8.33 14.32 8.66 15 9 C11.34435091 8.31238981 8.48132728 6.74550455 5.25 4.9375 C4.26515625 4.38964844 3.2803125 3.84179688 2.265625 3.27734375 C1.51796875 2.85582031 0.7703125 2.43429688 0 2 C0 1.34 0 0.68 0 0 Z " fill="#3B3B39" transform="translate(335,87)"/>
<path d="M0 0 C0.33 0 0.66 0 1 0 C1 5.28 1 10.56 1 16 C-0.32 14.68 -1.64 13.36 -3 12 C-5.13309192 10.76487921 -5.13309192 10.76487921 -7 10 C-6.67 9.01 -6.34 8.02 -6 7 C-4.68 7.99 -3.36 8.98 -2 10 C-1.34 6.7 -0.68 3.4 0 0 Z " fill="#898886" transform="translate(355,189)"/>
<path d="M0 0 C0.33 0.99 0.66 1.98 1 3 C-1.65381366 7.3522544 -4.10842202 8.7771055 -9 10 C-8.52695318 5.74257863 -6.1136178 3.74294902 -3 1 C-2.01 0.67 -1.02 0.34 0 0 Z " fill="#111110" transform="translate(251,126)"/>
<path d="M0 0 C-0.99 0.66 -1.98 1.32 -3 2 C-2.67 3.65 -2.34 5.3 -2 7 C-3.32 7 -4.64 7 -6 7 C-6.33 6.01 -6.66 5.02 -7 4 C-8.98 4 -10.96 4 -13 4 C-9.0516245 0.65906688 -5.11813443 -1.70604481 0 0 Z " fill="#706F6D" transform="translate(296,88)"/>
<path d="M0 0 C0.66 0.99 1.32 1.98 2 3 C0.98877577 5.70546835 -0.07482145 8.12777348 -1.375 10.6875 C-1.88933594 11.7403418 -1.88933594 11.7403418 -2.4140625 12.81445312 C-3.26367583 14.54908033 -4.13026287 16.27537492 -5 18 C-5.99 17.34 -6.98 16.68 -8 16 C-5.36 10.72 -2.72 5.44 0 0 Z " fill="#212121" transform="translate(408,219)"/>
<path d="M0 0 C3.73925264 0.55426975 5.30266464 1.99388085 7.75 4.8125 C8.67039062 5.84310547 8.67039062 5.84310547 9.609375 6.89453125 C11 9 11 9 11 13 C10.34 13 9.68 13 9 13 C7.37257193 11.05237399 5.8635524 9.11158541 4.375 7.0625 C3.95476562 6.49853516 3.53453125 5.93457031 3.1015625 5.35351562 C0 1.14928724 0 1.14928724 0 0 Z " fill="#2A2929" transform="translate(253,241)"/>
<path d="M0 0 C4.61513112 1.31860889 8.09897612 3.21355437 12 6 C11.01 6.495 11.01 6.495 10 7 C10.66 8.32 11.32 9.64 12 11 C6.71336455 8.84618556 3.22129633 4.57763162 0 0 Z " fill="#B1B0AF" transform="translate(309,186)"/>
<path d="M0 0 C7.875 9.5625 7.875 9.5625 8.25 13.875 C8.1675 14.57625 8.085 15.2775 8 16 C6.64843325 14.34808509 5.320238 12.67705908 4 11 C3.30003906 10.13375 3.30003906 10.13375 2.5859375 9.25 C2.12445313 8.651875 1.66296875 8.05375 1.1875 7.4375 C0.74792969 6.87933594 0.30835938 6.32117188 -0.14453125 5.74609375 C-1 4 -1 4 -0.63671875 1.78515625 C-0.42660156 1.19605469 -0.21648437 0.60695312 0 0 Z " fill="#454442" transform="translate(395,129)"/>
<path d="M0 0 C4.75 1.875 4.75 1.875 7 3 C7 3.66 7 4.32 7 5 C7.66 5 8.32 5 9 5 C9.33 5.99 9.66 6.98 10 8 C5.61110675 7.33501617 2.0188515 5.81242323 -2 4 C-1.34 3.67 -0.68 3.34 0 3 C0 2.01 0 1.02 0 0 Z " fill="#353433" transform="translate(363,104)"/>
<path d="M0 0 C3.75 0.1875 3.75 0.1875 7 1 C6.67 1.99 6.34 2.98 6 4 C4.35448038 4.71727778 2.68577711 5.38325228 1 6 C0.34 6.66 -0.32 7.32 -1 8 C-1.99 7.01 -2.98 6.02 -4 5 C-2.4375 2.4375 -2.4375 2.4375 0 0 Z " fill="#8F8D8D" transform="translate(296,86)"/>
<path d="M0 0 C1.17369141 0.43892578 1.17369141 0.43892578 2.37109375 0.88671875 C3.15613281 1.17160156 3.94117188 1.45648438 4.75 1.75 C6.80859375 2.57421875 6.80859375 2.57421875 8.80859375 3.57421875 C8.80859375 4.23421875 8.80859375 4.89421875 8.80859375 5.57421875 C2.40859375 6.80498798 2.40859375 6.80498798 -0.62890625 5.63671875 C-1.14453125 5.28609375 -1.66015625 4.93546875 -2.19140625 4.57421875 C0.11859375 4.90421875 2.42859375 5.23421875 4.80859375 5.57421875 C4.80859375 4.91421875 4.80859375 4.25421875 4.80859375 3.57421875 C1.50859375 2.91421875 -1.79140625 2.25421875 -5.19140625 1.57421875 C-2.19140625 -0.42578125 -2.19140625 -0.42578125 0 0 Z " fill="#151413" transform="translate(300.19140625,285.42578125)"/>
<path d="M0 0 C2.475 0.495 2.475 0.495 5 1 C5 1.66 5 2.32 5 3 C5.928125 3.2475 6.85625 3.495 7.8125 3.75 C11.16458325 5.06454245 12.1877803 5.97963384 14 9 C12.948125 8.566875 12.948125 8.566875 11.875 8.125 C8.98646696 6.94970556 8.98646696 6.94970556 5.875 6.0625 C3.09862996 5.0364502 1.7554894 4.34065253 0 2 C0 1.34 0 0.68 0 0 Z " fill="#1C1B1B" transform="translate(250,261)"/>
<path d="M0 0 C4.63720719 3.27530896 8.68542782 6.30435607 12 11 C11.01 11.495 11.01 11.495 10 12 C10 11.34 10 10.68 10 10 C9.2575 9.938125 8.515 9.87625 7.75 9.8125 C4.11077188 8.73727351 3.04368887 7.1385222 1 4 C0.62810291 2.6769046 0.28659995 1.34415377 0 0 Z " fill="#9D9B99" transform="translate(333,182)"/>
<path d="M0 0 C0 0.99 0 1.98 0 3 C-1.5159375 2.9690625 -1.5159375 2.9690625 -3.0625 2.9375 C-6.80327257 2.99687734 -10.31244898 3.39795085 -14 4 C-8.59129276 -0.41236643 -6.98723078 -1.16453846 0 0 Z " fill="#4B4847" transform="translate(371,270)"/>
<path d="M0 0 C2.34914492 2.34914492 2.73140357 3.95679446 3.625 7.125 C3.88539063 8.03507813 4.14578125 8.94515625 4.4140625 9.8828125 C4.70410156 10.93082031 4.70410156 10.93082031 5 12 C4.01 12.495 4.01 12.495 3 13 C3 12.34 3 11.68 3 11 C2.01 11.33 1.02 11.66 0 12 C-0.76173392 7.6835078 -1.16063604 4.25566547 0 0 Z " fill="#252423" transform="translate(224,206)"/>
<path d="M0 0 C2.125 0 2.125 0 5 1 C7.25484692 3.49775783 9.14265083 6.19801963 11 9 C10.67 9.66 10.34 10.32 10 11 C9.278125 10.2575 8.55625 9.515 7.8125 8.75 C5.09288953 5.98732731 5.09288953 5.98732731 2.1875 3.8125 C1.465625 3.214375 0.74375 2.61625 0 2 C0 1.34 0 0.68 0 0 Z " fill="#B5B2B2" transform="translate(298,175)"/>
<path d="M0 0 C1.12894876 0.93274109 2.25300876 1.87140122 3.375 2.8125 C4.00148438 3.33457031 4.62796875 3.85664063 5.2734375 4.39453125 C7 6 7 6 9 9 C8.34 9 7.68 9 7 9 C7 9.66 7 10.32 7 11 C3.73217086 9.91072362 3.18062667 9.31652071 1.25 6.625 C0.80140625 6.01914063 0.3528125 5.41328125 -0.109375 4.7890625 C-1 3 -1 3 0 0 Z " fill="#BBBAB9" transform="translate(309,159)"/>
<path d="M0 0 C0 0.66 0 1.32 0 2 C-0.969375 2.28875 -1.93875 2.5775 -2.9375 2.875 C-6.10664203 3.64214682 -6.10664203 3.64214682 -7 6 C-8.32 5.67 -9.64 5.34 -11 5 C-10.67 3.68 -10.34 2.36 -10 1 C-6.56484998 0.37542727 -3.50935186 0 0 0 Z " fill="#747271" transform="translate(282,228)"/>
<path d="M0 0 C0.66 0.66 1.32 1.32 2 2 C0.88321917 3.6721852 -0.24366352 5.33762803 -1.375 7 C-2.00148437 7.928125 -2.62796875 8.85625 -3.2734375 9.8125 C-3.84320313 10.534375 -4.41296875 11.25625 -5 12 C-5.66 12 -6.32 12 -7 12 C-6.5020163 8.26512223 -6.12508244 6.18762365 -4 3 C-3.01 2.67 -2.02 2.34 -1 2 C-0.67 1.34 -0.34 0.68 0 0 Z " fill="#5F5B5C" transform="translate(236,137)"/>
<path d="M0 0 C0.33 0.99 0.66 1.98 1 3 C0.09972412 4.03531726 -0.82093035 5.05294165 -1.75 6.0625 C-2.51570313 6.91521484 -2.51570313 6.91521484 -3.296875 7.78515625 C-5 9 -5 9 -7.203125 8.68359375 C-7.79609375 8.45800781 -8.3890625 8.23242188 -9 8 C-6.14723863 5.06799526 -3.34920216 2.35684596 0 0 Z " fill="#504F50" transform="translate(407,245)"/>
<path d="M0 0 C0.66 0.33 1.32 0.66 2 1 C2.44921875 3.984375 2.44921875 3.984375 2.6875 7.75 C2.77386719 8.98234375 2.86023438 10.2146875 2.94921875 11.484375 C2.99345669 14.54700191 2.74933154 17.04774643 2 20 C1.67 20 1.34 20 1 20 C0.95101563 19.28714844 0.90203125 18.57429688 0.8515625 17.83984375 C0.41871477 12.29491509 -0.24028816 7.27913551 -2 2 C-1.34 2 -0.68 2 0 2 C0 1.34 0 0.68 0 0 Z " fill="#212021" transform="translate(412,160)"/>
<path d="M0 0 C2.2109885 0.42793326 3.98119242 0.99059621 6 2 C6.75 4.9375 6.75 4.9375 7 8 C6.34 8.66 5.68 9.32 5 10 C4.01 9.01 3.02 8.02 2 7 C2.33 6.01 2.66 5.02 3 4 C2.34 4 1.68 4 1 4 C1 3.34 1 2.68 1 2 C0.34 1.67 -0.32 1.34 -1 1 C-0.67 0.67 -0.34 0.34 0 0 Z " fill="#171615" transform="translate(369,105)"/>
<path d="M0 0 C0.66 0.33 1.32 0.66 2 1 C2 1.99 2 2.98 2 4 C-1 6.1875 -1 6.1875 -4 8 C-4 7.34 -4 6.68 -4 6 C-4.66 6 -5.32 6 -6 6 C-5 3 -5 3 -2.5625 1.25 C-1.716875 0.8375 -0.87125 0.425 0 0 Z " fill="#464445" transform="translate(397,252)"/>
<path d="M0 0 C-0.33 2.31 -0.66 4.62 -1 7 C-3.46800047 5.84826645 -5.04783565 4.95216435 -7 3 C-7 2.01 -7 1.02 -7 0 C-2.25 -1.125 -2.25 -1.125 0 0 Z " fill="#686765" transform="translate(382,102)"/>
<path d="M0 0 C0.99 0.495 0.99 0.495 2 1 C2 8.66666667 2 16.33333333 2 24 C1.34 24.33 0.68 24.66 0 25 C0 16.75 0 8.5 0 0 Z " fill="#A4A2A1" transform="translate(285,142)"/>
<path d="M0 0 C0.99 0.33 1.98 0.66 3 1 C2.67 2.65 2.34 4.3 2 6 C-0.97 5.01 -3.94 4.02 -7 3 C-7 2.34 -7 1.68 -7 1 C-4.69 1.33 -2.38 1.66 0 2 C0 1.34 0 0.68 0 0 Z " fill="#AFAFAB" transform="translate(344,85)"/>
<path d="M0 0 C2.875 0.1875 2.875 0.1875 6 1 C7.25 3.4375 7.25 3.4375 8 6 C8.66 6.66 9.32 7.32 10 8 C7 8 7 8 4 6 C4 5.34 4 4.68 4 4 C3.01 3.67 2.02 3.34 1 3 C0.67 2.01 0.34 1.02 0 0 Z " fill="#B6B5B3" transform="translate(335,210)"/>
<path d="M0 0 C0.33 0 0.66 0 1 0 C1.13277344 1.01320312 1.26554687 2.02640625 1.40234375 3.0703125 C1.58067584 4.42188204 1.75906425 5.77344414 1.9375 7.125 C2.02451172 7.79015625 2.11152344 8.4553125 2.20117188 9.140625 C2.72630558 13.10830188 3.31814014 17.05626998 4 21 C1.68683344 19.30610638 0.16813253 17.97994403 -0.33007812 15.07617188 C-0.3934207 12.78970912 -0.34853117 10.53516518 -0.25 8.25 C-0.23195313 7.45722656 -0.21390625 6.66445312 -0.1953125 5.84765625 C-0.14833082 3.89791652 -0.07659044 1.94880122 0 0 Z " fill="#D9D5D4" transform="translate(286,145)"/>
<path d="M0 0 C0.99 0.66 1.98 1.32 3 2 C1.06643218 2.69848264 -0.87202298 3.38344814 -2.8125 4.0625 C-3.89144531 4.44535156 -4.97039062 4.82820313 -6.08203125 5.22265625 C-9 6 -9 6 -12 5 C-8.14827848 2.43218565 -4.54658151 0.92615549 0 0 Z " fill="#282726" transform="translate(364,272)"/>
<path d="M0 0 C5.94 1.485 5.94 1.485 12 3 C11.01 3.495 11.01 3.495 10 4 C10 5.65 10 7.3 10 9 C8 7.625 8 7.625 6 6 C6 5.34 6 4.68 6 4 C5.195625 3.71125 4.39125 3.4225 3.5625 3.125 C1 2 1 2 0 0 Z " fill="#A19D9B" transform="translate(323,200)"/>
<path d="M0 0 C2.375 0.6875 2.375 0.6875 5 2 C6.3125 4.625 6.3125 4.625 7 7 C3.93109813 8.53445094 1.29905734 7.54984289 -2 7 C-0.68 6.67 0.64 6.34 2 6 C1.34 4.02 0.68 2.04 0 0 Z " fill="#5A5A5A" transform="translate(350,96)"/>
<path d="M0 0 C1.79379098 0.44994757 3.58498928 0.91024143 5.375 1.375 C6.37273437 1.63023438 7.37046875 1.88546875 8.3984375 2.1484375 C11 3 11 3 13 5 C10.58292094 5.85276722 9.35996549 6.12087895 6.89453125 5.29296875 C6.20746094 4.92816406 5.52039063 4.56335938 4.8125 4.1875 C4.11769531 3.83042969 3.42289062 3.47335938 2.70703125 3.10546875 C1 2 1 2 0 0 Z " fill="#545453" transform="translate(356,87)"/>
<path d="M0 0 C1.60495567 0.11442461 3.20898119 0.24194694 4.8125 0.375 C5.70582031 0.44460937 6.59914063 0.51421875 7.51953125 0.5859375 C10 1 10 1 13 3 C11.35 3 9.7 3 8 3 C7.67 3.66 7.34 4.32 7 5 C6.01 5 5.02 5 4 5 C3.67 4.01 3.34 3.02 3 2 C2.34 1.67 1.68 1.34 1 1 C1 1.66 1 2.32 1 3 C0.34 2.67 -0.32 2.34 -1 2 C-0.67 1.34 -0.34 0.68 0 0 Z " fill="#636261" transform="translate(343,84)"/>
<path d="M0 0 C0.53625 0.391875 1.0725 0.78375 1.625 1.1875 C-2.85574195 4.54805646 -5.98050707 4.46179625 -11.375 4.1875 C-3.36630435 -1.15163043 -3.36630435 -1.15163043 0 0 Z " fill="#282724" transform="translate(364.375,267.8125)"/>
<path d="M0 0 C0.66 0.66 1.32 1.32 2 2 C2.99 2.33 3.98 2.66 5 3 C3.38007835 3.86375896 1.75388139 4.71575854 0.125 5.5625 C-1.23238281 6.27599609 -1.23238281 6.27599609 -2.6171875 7.00390625 C-3.40351563 7.33261719 -4.18984375 7.66132813 -5 8 C-5.66 7.67 -6.32 7.34 -7 7 C-5.71034824 5.62437146 -4.37310707 4.29233607 -3 3 C-2.34 3 -1.68 3 -1 3 C-0.67 2.01 -0.34 1.02 0 0 Z " fill="#272424" transform="translate(386,255)"/>
<path d="M0 0 C1.31611677 0.95336021 2.62778961 1.91285774 3.9375 2.875 C4.66839844 3.40867188 5.39929688 3.94234375 6.15234375 4.4921875 C8 6 8 6 9 8 C7.35 7.67 5.7 7.34 4 7 C4 6.34 4 5.68 4 5 C2.35 4.67 0.7 4.34 -1 4 C-0.67 2.68 -0.34 1.36 0 0 Z " fill="#B2B0AF" transform="translate(324,174)"/>
<path d="M0 0 C0.99 0.33 1.98 0.66 3 1 C1.38050958 2.50594681 -0.24575974 4.00460668 -1.875 5.5 C-3.23238281 6.75296875 -3.23238281 6.75296875 -4.6171875 8.03125 C-7 10 -7 10 -9 10 C-7.87240651 6.61721952 -6.75475825 5.58114101 -4.125 3.25 C-3.42632812 2.61578125 -2.72765625 1.9815625 -2.0078125 1.328125 C-1.34523437 0.88984375 -0.68265625 0.4515625 0 0 Z " fill="#90908E" transform="translate(252,121)"/>
<path d="M0 0 C3.32637022 2.69277589 4.58473125 6.03724749 6 10 C5.67 10.99 5.34 11.98 5 13 C1.68441485 8.61487125 0.45003347 5.62541841 0 0 Z " fill="#2A2A2A" transform="translate(242,227)"/>
<path d="M0 0 C2.8125 0.125 2.8125 0.125 6 1 C7.9375 3.9375 7.9375 3.9375 9 7 C8.67 7.66 8.34 8.32 8 9 C6.5 7.625 6.5 7.625 5 6 C5 5.34 5 4.68 5 4 C4.360625 3.71125 3.72125 3.4225 3.0625 3.125 C1 2 1 2 0 0 Z " fill="#A2A1A0" transform="translate(344,219)"/>
<path d="M0 0 C3.96 1.98 3.96 1.98 8 4 C8 4.99 8 5.98 8 7 C7.01 7.33 6.02 7.66 5 8 C5 6.68 5 5.36 5 4 C4.360625 3.896875 3.72125 3.79375 3.0625 3.6875 C2.381875 3.460625 1.70125 3.23375 1 3 C0.67 2.01 0.34 1.02 0 0 Z M3 8 C5 9 5 9 5 9 Z " fill="#565554" transform="translate(374,94)"/>
<path d="M0 0 C4.95 0 9.9 0 15 0 C14.67 0.66 14.34 1.32 14 2 C8.59710348 3.09889421 5.18610439 3.20409437 0 1 C0 0.67 0 0.34 0 0 Z " fill="#6E6C6D" transform="translate(333,98)"/>
<path d="M0 0 C5.75 -0.125 5.75 -0.125 8 1 C8 1.66 8 2.32 8 3 C8.99 3.33 9.98 3.66 11 4 C9.68 4.33 8.36 4.66 7 5 C7 4.34 7 3.68 7 3 C5.35 3 3.7 3 2 3 C2 2.34 2 1.68 2 1 C1.34 0.67 0.68 0.34 0 0 Z " fill="#3C3A39" transform="translate(364,267)"/>
<path d="M0 0 C0.99 1.32 1.98 2.64 3 4 C2.01 4.495 2.01 4.495 1 5 C1.66 5.66 2.32 6.32 3 7 C3.625 9.125 3.625 9.125 4 11 C2.68 10.67 1.36 10.34 0 10 C0 6.7 0 3.4 0 0 Z " fill="#3E403C" transform="translate(356,196)"/>
<path d="M0 0 C0.99 0 1.98 0 3 0 C3.99 3.63 4.98 7.26 6 11 C5.01 10.67 4.02 10.34 3 10 C2.05078125 7.71484375 2.05078125 7.71484375 1.3125 4.9375 C1.06113281 4.01839844 0.80976563 3.09929687 0.55078125 2.15234375 C0.36902344 1.44207031 0.18726563 0.73179687 0 0 Z " fill="#4E4E4E" transform="translate(404,146)"/>
<path d="M0 0 C-1.28519565 2.86697492 -2.57129254 4.97607712 -5 7 C-5.66 7 -6.32 7 -7 7 C-6.61402985 4.20171644 -6.19863427 3.1794116 -4.0625 1.25 C-2 0 -2 0 0 0 Z " fill="#686765" transform="translate(266,102)"/>
<path d="M0 0 C5.76283104 -0.45496035 10.60568303 1.20900148 16 3 C16 3.33 16 3.66 16 4 C9.80112515 4.37952295 5.5522888 3.8352113 0 1 C0 0.67 0 0.34 0 0 Z " fill="#262625" transform="translate(286,271)"/>
<path d="M0 0 C2.97 0 5.94 0 9 0 C8.67 1.32 8.34 2.64 8 4 C5.64828869 3.40138258 3.3140622 2.73075648 1 2 C0.67 1.34 0.34 0.68 0 0 Z " fill="#7F7A7B" transform="translate(299,229)"/>
<path d="M0 0 C1.98 1.65 3.96 3.3 6 5 C5.67 5.99 5.34 6.98 5 8 C2.69 6.02 0.38 4.04 -2 2 C-1.34 1.34 -0.68 0.68 0 0 Z " fill="#989896" transform="translate(380,109)"/>
<path d="M0 0 C4.15414253 1.22736029 6.43688534 2.327664 10 5 C6.7 4.67 3.4 4.34 0 4 C0 2.68 0 1.36 0 0 Z " fill="#6B6B6A" transform="translate(336,90)"/>
<path d="M0 0 C5.75 0.75 5.75 0.75 8 3 C5.69 3.33 3.38 3.66 1 4 C0.67 2.68 0.34 1.36 0 0 Z " fill="#313130" transform="translate(285,267)"/>
<path d="M0 0 C2.4375 0.375 2.4375 0.375 5 1 C5.33 1.66 5.66 2.32 6 3 C8.01669827 4.13350534 8.01669827 4.13350534 10 5 C8.25 5.6875 8.25 5.6875 6 6 C3.75 4.6875 3.75 4.6875 2 3 C2 2.34 2 1.68 2 1 C1.34 0.67 0.68 0.34 0 0 Z " fill="#9D9B9B" transform="translate(353,228)"/>
<path d="M0 0 C2.4375 0.8125 2.4375 0.8125 5 2 C5.33 2.99 5.66 3.98 6 5 C5.67 5.66 5.34 6.32 5 7 C3.68 6.34 2.36 5.68 1 5 C1.66 5 2.32 5 3 5 C3 4.34 3 3.68 3 3 C2.01 3 1.02 3 0 3 C0 2.01 0 1.02 0 0 Z " fill="#666665" transform="translate(369,92)"/>
<path d="M0 0 C-0.99 1.485 -0.99 1.485 -2 3 C-5.63 2.67 -9.26 2.34 -13 2 C-13 1.67 -13 1.34 -13 1 C-8.59085217 -0.10228696 -4.51617599 -0.07654536 0 0 Z " fill="#323232" transform="translate(320,275)"/>
<path d="M0 0 C0.66 0 1.32 0 2 0 C1.67 1.32 1.34 2.64 1 4 C-2.375 4.125 -2.375 4.125 -6 4 C-6.66 3.34 -7.32 2.68 -8 2 C-4.98968256 1.06576355 -4.13349732 0.95550089 -1 2 C-0.67 1.34 -0.34 0.68 0 0 Z " fill="#4C4847" transform="translate(308,230)"/>
<path d="M0 0 C0.33 0.66 0.66 1.32 1 2 C3.64 2 6.28 2 9 2 C7.3125 3.5625 7.3125 3.5625 5 5 C2.25 4.6875 2.25 4.6875 0 4 C0 2.68 0 1.36 0 0 Z " fill="#5C5857" transform="translate(338,146)"/>
<path d="M0 0 C0.33 0.66 0.66 1.32 1 2 C2.98 1.34 4.96 0.68 7 0 C4.8125 2.5625 4.8125 2.5625 2 5 C-0.8125 4.8125 -0.8125 4.8125 -3 4 C-2.01 2.68 -1.02 1.36 0 0 Z " fill="#1E1E1C" transform="translate(241,134)"/>
<path d="M0 0 C-1.39332574 3.36720387 -2.9789286 4.9859524 -6 7 C-6.33 5.68 -6.66 4.36 -7 3 C-6.01 3 -5.02 3 -4 3 C-4 2.34 -4 1.68 -4 1 C-2 0 -2 0 0 0 Z " fill="#232122" transform="translate(269,118)"/>
<path d="M0 0 C0.66 0.33 1.32 0.66 2 1 C0.68 2.65 -0.64 4.3 -2 6 C-3.65 5.67 -5.3 5.34 -7 5 C-4.88437775 2.67281553 -2.94982021 1.14186589 0 0 Z " fill="#262523" transform="translate(271,111)"/>
<path d="M0 0 C0.33 0 0.66 0 1 0 C1.76173392 4.3164922 2.16063604 7.74433453 1 12 C0.34 12 -0.32 12 -1 12 C-1.08159574 7.83861737 -0.98248524 4.0527516 0 0 Z " fill="#1A1918" transform="translate(296,219)"/>
<path d="M0 0 C0 0.66 0 1.32 0 2 C-2.31 2.33 -4.62 2.66 -7 3 C-6.67 2.01 -6.34 1.02 -6 0 C-3.42525708 -0.99667468 -2.51072708 -1.25536354 0 0 Z " fill="#484443" transform="translate(282,231)"/>
<path d="M0 0 C2.74277578 3.19990508 4.6302836 6.00499382 6 10 C3 9 3 9 1.3125 6.125 C0 3 0 3 0 0 Z " fill="#1C1B1B" transform="translate(413,128)"/>
<path d="M0 0 C0.99 0.66 1.98 1.32 3 2 C-1.455 3.485 -1.455 3.485 -6 5 C-5 2 -5 2 -2.625 0.6875 C-1.75875 0.460625 -0.8925 0.23375 0 0 Z " fill="#8D8C8A" transform="translate(295,97)"/>
<path d="M0 0 C0.75 1.6875 0.75 1.6875 1 4 C-0.9375 6.75 -0.9375 6.75 -3 9 C-3.33 8.01 -3.66 7.02 -4 6 C-2.0625 2.8125 -2.0625 2.8125 0 0 Z " fill="#343333" transform="translate(419,230)"/>
<path d="M0 0 C2.375 0.3125 2.375 0.3125 5 1 C5.66 1.99 6.32 2.98 7 4 C5.35 4 3.7 4 2 4 C1.34 2.68 0.68 1.36 0 0 Z " fill="#CDC9CA" transform="translate(298,175)"/>
<path d="M0 0 C2.31 0 4.62 0 7 0 C7.33 0.66 7.66 1.32 8 2 C5.36 2.33 2.72 2.66 0 3 C0 2.01 0 1.02 0 0 Z " fill="#3F3D3C" transform="translate(342,149)"/>
<path d="M0 0 C-2.95070119 1.96713413 -4.53581611 2.65358161 -8 3 C-8.99 2.34 -9.98 1.68 -11 1 C-7.32589215 -0.17571451 -3.83070817 -0.07366746 0 0 Z " fill="#353333" transform="translate(295,104)"/>
<path d="M0 0 C2.46800047 1.15173355 4.04783565 2.04783565 6 4 C5.67 4.99 5.34 5.98 5 7 C3.29115995 5.37660195 1.62553283 3.70680947 0 2 C0 1.34 0 0.68 0 0 Z " fill="#3E3E3E" transform="translate(263,251)"/>
<path d="M0 0 C3.4375 0.8125 3.4375 0.8125 7 2 C7.33 2.99 7.66 3.98 8 5 C2.25 3.375 2.25 3.375 0 0 Z " fill="#D8D8D6" transform="translate(321,197)"/>
<path d="M0 0 C0.33 0.66 0.66 1.32 1 2 C0.34 2 -0.32 2 -1 2 C-1.33 2.99 -1.66 3.98 -2 5 C-3.32 5 -4.64 5 -6 5 C-6 4.34 -6 3.68 -6 3 C-4.02 2.01 -2.04 1.02 0 0 Z " fill="#999795" transform="translate(366,150)"/>
</svg>
